<?xml version="1.0" standalone="no"?>
<!DOCTYPE svg PUBLIC "-//W3C//DTD SVG 20010904//EN"
 "http://www.w3.org/TR/2001/REC-SVG-20010904/DTD/svg10.dtd">
<svg version="1.0" xmlns="http://www.w3.org/2000/svg"
 width="1034.000000pt" height="1280.000000pt" viewBox="0 0 1034.000000 1280.000000"
 preserveAspectRatio="xMidYMid meet">
<metadata>
Created by potrace 1.15, written by Peter Selinger 2001-2017
</metadata>
<g transform="translate(0.000000,1280.000000) scale(0.100000,-0.100000)"
fill="#000000" stroke="none">
<path d="M4745 12794 c-16 -2 -77 -9 -135 -15 -297 -31 -595 -116 -841 -239
-165 -82 -291 -172 -415 -295 -107 -107 -111 -113 -153 -214 -110 -267 -121
-482 -33 -645 68 -127 201 -218 457 -311 242 -89 317 -140 355 -242 22 -60 28
-201 9 -250 -40 -108 -164 -190 -344 -228 -60 -13 -310 -15 -1770 -15 l-1700
0 -51 -24 c-54 -25 -94 -69 -113 -125 -8 -25 -11 -482 -11 -1705 0 -1795 -1
-1758 51 -1946 65 -238 218 -440 403 -530 110 -54 181 -71 310 -75 l109 -4 38
-68 c115 -209 331 -301 582 -248 98 21 169 56 233 117 77 73 124 156 199 356
77 206 104 261 155 316 22 24 37 46 34 49 -4 3 10 16 30 28 36 21 37 22 20 48
-37 58 -97 131 -147 178 -43 40 -67 54 -138 76 -110 35 -185 40 -205 12 -8
-11 -12 -25 -10 -32 3 -7 0 -12 -7 -10 -7 1 -12 -8 -11 -20 0 -12 -3 -20 -7
-18 -3 3 -12 -8 -17 -23 -41 -103 -62 -168 -57 -180 2 -7 1 -11 -4 -8 -12 8
-44 -81 -35 -95 4 -7 3 -9 -3 -6 -11 7 -66 -100 -57 -114 3 -5 1 -8 -4 -7 -6
2 -33 -29 -60 -68 -54 -76 -125 -142 -207 -192 -55 -34 -218 -92 -257 -92 -33
0 -39 -8 -27 -34 10 -20 10 -20 -5 -2 -9 11 -16 25 -16 30 0 6 39 19 87 28
134 26 238 82 337 182 105 105 160 200 243 419 78 206 95 242 128 263 33 22
90 14 213 -28 88 -30 98 -36 154 -97 125 -137 222 -309 293 -525 121 -361 146
-750 76 -1161 -17 -99 -43 -227 -57 -285 -67 -272 -201 -536 -348 -685 -39
-40 -68 -58 -121 -78 -145 -53 -186 -58 -224 -24 -14 12 -19 14 -12 5 10 -14
10 -18 1 -18 -6 0 -14 9 -17 19 -3 11 -11 22 -18 25 -7 2 -30 49 -51 103 -137
354 -165 410 -262 514 -115 125 -257 194 -454 220 -402 52 -727 -191 -839
-628 -18 -74 -19 -127 -19 -1861 0 -1308 3 -1795 11 -1823 16 -52 64 -108 113
-130 37 -17 71 -19 353 -19 l313 0 3 -172 3 -173 2 171 2 172 937 6 c516 4
1165 11 1443 15 496 8 507 9 605 34 196 50 343 128 453 239 71 71 90 98 134
183 61 118 79 220 67 384 -14 200 -70 338 -187 463 -106 112 -222 181 -447
263 -152 56 -213 85 -239 114 -25 27 -18 94 20 211 25 77 33 91 94 152 153
152 398 275 690 347 395 97 747 92 1229 -16 221 -49 436 -136 586 -236 79 -53
165 -126 125 -106 -14 7 -36 14 -50 16 -51 6 -154 31 -130 32 14 0 52 -6 85
-14 32 -8 60 -13 62 -12 4 5 -87 70 -153 110 -74 45 -182 95 -284 131 -243 88
-757 167 -985 152 -178 -12 -237 -19 -227 -25 5 -3 -15 -6 -46 -7 -65 -1 -264
-43 -257 -55 3 -4 -3 -5 -13 -3 -25 7 -211 -60 -327 -118 -115 -57 -241 -141
-237 -158 1 -6 -2 -9 -7 -5 -6 3 -32 -16 -59 -42 -53 -51 -79 -108 -110 -235
-21 -91 -13 -114 57 -149 82 -41 229 -91 242 -83 7 4 9 3 6 -3 -4 -6 14 -18
40 -28 44 -17 47 -17 60 0 7 11 13 14 13 9 0 -6 -5 -15 -12 -22 -7 -7 -8 -12
-2 -12 6 0 16 11 22 25 15 33 15 38 0 29 -27 -16 74 95 124 138 61 52 158 122
158 115 0 -3 -24 -22 -52 -43 -78 -55 -164 -132 -195 -173 -15 -20 11 0 60 46
306 288 786 461 1332 480 174 6 340 -5 490 -32 44 -8 125 -22 180 -31 55 -9
130 -24 167 -34 37 -10 69 -16 71 -13 3 2 17 -10 33 -26 57 -60 117 -265 95
-323 -13 -34 -88 -73 -245 -129 -371 -132 -540 -284 -618 -556 -19 -64 -23
-103 -23 -223 0 -133 2 -152 29 -234 83 -252 300 -433 612 -510 54 -13 120
-27 145 -30 40 -6 49 -12 67 -44 61 -109 199 -203 379 -259 l88 -28 740 -2
c407 -2 1181 -4 1720 -5 l980 -3 -7 1645 c-5 1047 -11 1680 -18 1742 -29 260
-138 464 -300 563 -55 33 -58 37 -64 85 -10 78 -53 217 -92 299 -82 176 -195
299 -339 371 -116 58 -188 74 -330 75 -219 0 -385 -59 -516 -183 -116 -109
-171 -201 -258 -433 -71 -191 -87 -226 -115 -254 -39 -39 -101 -34 -248 21
-59 22 -78 36 -141 104 -177 191 -313 512 -374 885 -28 171 -26 543 5 730 82
507 198 799 405 1021 58 62 104 86 232 119 140 36 154 23 250 -240 77 -208
151 -339 251 -439 110 -110 258 -176 442 -196 237 -26 424 31 581 177 129 118
201 252 263 483 l22 85 6 1450 5 1450 3 -1411 c2 -1257 0 -1421 -14 -1505 -52
-304 -188 -526 -399 -654 -30 -18 -51 -36 -47 -40 4 -5 2 -5 -4 -2 -7 4 -38
-2 -69 -13 -32 -11 -86 -25 -121 -31 -35 -6 -64 -15 -64 -19 0 -21 106 -163
144 -195 115 -94 324 -138 484 -100 175 41 299 163 373 367 60 165 59 116 59
1931 l0 1657 -167 2 -168 2 170 6 170 6 -182 2 -183 2 0 302 c0 286 -1 304
-21 345 -25 51 -76 96 -128 112 -28 8 -495 11 -1745 11 -938 0 -1706 2 -1706
5 0 14 41 85 66 114 14 18 24 34 21 37 -3 3 -18 -12 -33 -33 -40 -55 -50 -63
-28 -24 21 36 121 134 157 152 26 14 18 6 -46 -45 -26 -21 -46 -41 -43 -43 3
-3 25 12 49 33 57 50 156 99 337 167 80 30 165 64 190 77 185 93 228 244 143
499 -52 154 -100 221 -238 327 -68 52 -73 58 -79 102 -21 147 -105 364 -173
443 -202 237 -553 435 -946 535 -132 33 -476 91 -618 104 -106 9 -326 11 -394
4z m2292 -1277 c67 -64 86 -90 108 -144 14 -36 24 -67 22 -69 -2 -2 -16 27
-31 66 -24 60 -39 80 -112 150 -47 44 -94 85 -105 90 -17 9 -19 7 -19 -17 0
-52 -28 -158 -56 -217 -35 -74 -115 -161 -198 -215 -58 -38 -176 -91 -303
-136 -29 -10 -50 -22 -47 -27 3 -4 -2 -5 -10 -2 -9 3 -53 -12 -100 -35 -140
-68 -181 -136 -181 -301 0 -99 19 -145 81 -200 56 -49 158 -93 226 -98 32 -3
58 -9 58 -15 0 -16 -90 -1 -161 27 -89 36 -158 91 -188 151 -23 44 -26 61 -25
150 0 116 18 169 77 226 45 44 105 73 299 148 181 69 222 89 306 148 116 82
183 201 205 360 l10 82 31 -22 c17 -12 68 -57 113 -100z m168 -318 c8 -35 15
-98 15 -139 0 -88 -27 -155 -81 -207 -34 -32 -151 -95 -199 -107 l-25 -6 25
12 c191 91 209 104 246 183 35 75 31 209 -11 340 -6 17 -5 17 4 4 6 -9 17 -45
26 -80z m-295 -463 c0 -6 -93 -37 -97 -32 -2 2 15 11 39 19 47 17 58 19 58 13z
m-120 -46 c-8 -5 -19 -10 -25 -10 -5 0 -3 5 5 10 8 5 20 10 25 10 6 0 3 -5 -5
-10z m-50 -20 c-8 -5 -19 -10 -25 -10 -5 0 -3 5 5 10 8 5 20 10 25 10 6 0 3
-5 -5 -10z m-41 -14 c-10 -9 -109 -56 -109 -51 0 6 91 54 104 55 5 0 7 -2 5
-4z m-316 -271 c-3 -9 -8 -14 -10 -11 -3 3 -2 9 2 15 9 16 15 13 8 -4z m-4283
-3938 c0 -2 -10 -12 -22 -23 l-23 -19 19 23 c18 21 26 27 26 19z m-66 -84
c-36 -53 -41 -55 -14 -5 13 23 27 42 32 42 4 0 -4 -17 -18 -37z m-41 -68 c-3
-9 -8 -14 -10 -11 -3 3 -2 9 2 15 9 16 15 13 8 -4z m-32 -76 c-11 -24 -20 -41
-20 -37 -1 12 31 89 35 85 3 -2 -4 -24 -15 -48z m8345 -126 c-9 -42 -19 -79
-23 -82 -3 -3 -3 8 0 24 4 17 12 61 19 100 7 38 14 62 16 52 2 -9 -4 -52 -12
-94z m-8396 -13 c-28 -75 -63 -150 -45 -95 26 79 68 185 71 182 3 -2 -9 -41
-26 -87z m8361 -111 c-5 -13 -10 -19 -10 -12 -1 15 10 45 15 40 3 -2 0 -15 -5
-28z m-8435 -68 c-15 -28 -28 -51 -31 -51 -3 0 7 25 22 55 15 30 29 53 31 51
2 -2 -8 -27 -22 -55z m8389 -40 c-58 -111 -169 -213 -255 -235 -14 -4 3 7 38
24 84 42 163 123 209 216 20 41 38 72 41 70 2 -3 -13 -36 -33 -75z m-806 -132
c27 -25 69 -55 92 -66 24 -10 55 -25 69 -31 l25 -12 -25 6 c-49 13 -110 47
-156 87 -45 40 -124 148 -124 170 0 6 16 -16 35 -49 19 -32 57 -80 84 -105z
m-8456 87 c58 -87 137 -143 252 -178 46 -14 51 -17 20 -12 -101 14 -252 121
-299 212 -25 48 -13 39 27 -22z m797 -35 c-26 -37 -82 -82 -137 -110 -47 -23
-146 -52 -178 -50 -11 1 9 7 45 15 98 22 184 66 238 123 54 58 62 63 32 22z
m-372 -168 c-21 -2 -55 -2 -75 0 -21 2 -4 4 37 4 41 0 58 -2 38 -4z m8341 -9
c8 -7 -63 -2 -94 7 -20 5 -9 6 30 2 33 -3 62 -7 64 -9z m186 5 c-16 -5 -64
-11 -105 -14 l-75 -4 75 9 c41 6 79 12 85 14 5 3 19 4 30 4 13 0 9 -3 -10 -9z
m73 -3382 c6 -1111 6 -1704 -1 -1734 -12 -60 -92 -143 -153 -161 -32 -9 -431
-12 -1718 -12 l-1677 0 12 -23 c27 -50 126 -133 206 -172 45 -21 81 -41 79
-43 -2 -2 -39 14 -82 35 -82 40 -187 131 -216 188 l-16 30 1667 -3 c1152 -1
1682 1 1718 8 69 15 125 57 154 117 20 40 24 64 24 148 1 389 -16 3235 -20
3295 -3 56 -2 67 5 45 5 -17 13 -734 18 -1718z m112 1642 c30 -30 66 -75 79
-100 30 -55 18 -42 -34 35 -24 35 -65 78 -100 104 -74 54 -80 61 -35 36 19
-10 60 -44 90 -75z m167 -306 c26 -86 27 -95 28 -373 l2 -285 -7 285 c-7 302
-14 343 -69 474 -26 60 -26 73 -1 24 11 -20 32 -76 47 -125z m-270 -50 c-3
-10 -5 -4 -5 12 0 17 2 24 5 18 2 -7 2 -21 0 -30z m315 -2043 c2 -745 3 -1262
1 -1147 l-3 207 -153 2 -152 2 152 3 152 4 -6 1147 c-3 631 -3 1145 -1 1142 3
-3 7 -615 10 -1360z m-4709 1033 c-51 -2 -135 -2 -185 0 -51 1 -10 3 92 3 102
0 143 -2 93 -3z m-284 -7 c-2 -2 -44 -6 -94 -9 -53 -3 -73 -2 -50 3 42 8 151
13 144 6z m506 -6 c29 -6 17 -7 -40 -3 -44 3 -82 7 -84 9 -8 7 84 3 124 -6z
m-755 -25 c-36 -6 -83 -16 -105 -20 -22 -4 -37 -5 -34 -1 9 9 137 34 174 34
17 0 1 -6 -35 -13z m925 0 c50 -8 94 -15 99 -15 5 0 7 -2 4 -5 -5 -6 -220 24
-227 31 -8 7 33 4 124 -11z m-1095 -35 c-34 -11 -60 -11 -35 0 11 5 29 8 40 8
16 0 15 -2 -5 -8z m-63 -16 c-3 -3 -12 -4 -19 -1 -8 3 -5 6 6 6 11 1 17 -2 13
-5z m-101 -30 c-38 -13 -71 -22 -73 -20 -5 5 107 44 127 44 8 0 -16 -10 -54
-24z m-151 -54 c-38 -17 -72 -30 -75 -29 -10 2 115 58 130 58 8 0 -16 -13 -55
-29z m-86 -34 c-10 -9 -109 -56 -109 -51 0 6 91 54 104 55 5 0 7 -2 5 -4z
m-124 -64 c-18 -15 -85 -54 -85 -48 0 3 19 16 43 30 43 26 59 33 42 18z m2458
-2174 c69 -21 92 -22 647 -28 l575 -6 -535 -2 c-317 -1 -560 2 -596 8 -57 9
-188 47 -171 49 4 1 40 -9 80 -21z"/>
</g>
</svg>
