<?xml version="1.0" standalone="no"?>
<!DOCTYPE svg PUBLIC "-//W3C//DTD SVG 20010904//EN"
 "http://www.w3.org/TR/2001/REC-SVG-20010904/DTD/svg10.dtd">
<svg version="1.0" xmlns="http://www.w3.org/2000/svg"
 width="1280.000000pt" height="1067.000000pt" viewBox="0 0 1280.000000 1067.000000"
 preserveAspectRatio="xMidYMid meet">
<metadata>
Created by potrace 1.15, written by Peter Selinger 2001-2017
</metadata>
<g transform="translate(0.000000,1067.000000) scale(0.100000,-0.100000)"
fill="#000000" stroke="none">
<path d="M6035 10664 c-501 -48 -882 -197 -1141 -446 -70 -67 -92 -97 -124
-163 -68 -141 -85 -213 -85 -355 0 -121 1 -127 32 -191 63 -127 166 -199 422
-293 206 -76 259 -123 282 -248 32 -178 -69 -296 -293 -342 -68 -14 -241 -16
-1492 -16 -975 0 -1423 -3 -1443 -11 -38 -14 -83 -57 -99 -96 -12 -27 -14
-270 -14 -1458 0 -1247 -2 -1435 -15 -1501 -42 -202 -127 -289 -282 -288 -58
1 -82 6 -130 30 -77 39 -117 99 -186 280 -91 241 -159 334 -287 397 -62 31
-69 32 -190 32 -142 0 -214 -17 -356 -85 -67 -32 -95 -54 -162 -125 -216 -228
-350 -530 -422 -950 -42 -246 -53 -378 -46 -547 13 -321 84 -623 205 -872 73
-148 143 -249 256 -362 92 -92 107 -103 181 -132 296 -115 485 -102 629 42 66
66 105 135 165 295 105 277 142 318 301 328 70 5 84 3 132 -20 66 -33 107 -88
150 -200 38 -102 36 -17 45 -1722 l7 -1260 28 -48 c49 -84 63 -87 371 -87
l265 0 3 -120 3 -121 405 1 c223 1 864 5 1425 10 1127 10 1097 8 1243 75 78
37 136 74 128 83 -3 3 9 21 27 41 17 20 40 47 50 61 17 24 17 24 6 2 -6 -13
-27 -41 -46 -63 -19 -21 -30 -39 -24 -39 17 0 91 105 112 160 27 72 34 153 19
241 -14 80 -54 184 -68 175 -5 -3 -18 4 -28 17 l-19 22 23 -19 c12 -11 22 -15
22 -9 0 13 -35 44 -43 38 -4 -3 -5 -2 -2 2 6 8 -24 43 -38 43 -5 0 -3 -8 4
-17 13 -16 12 -17 -3 -5 -10 8 -16 19 -15 25 1 6 -20 23 -48 39 -52 28 -66 33
-63 21 1 -5 -1 -38 -5 -74 -27 -248 -199 -439 -481 -535 -150 -52 -172 -53
-1206 -59 -531 -3 -1057 -7 -1170 -9 -136 -3 -191 -1 -165 5 22 4 562 13 1200
17 1042 8 1168 11 1235 27 177 40 334 125 430 233 59 65 122 190 140 276 24
118 -10 331 -72 449 -45 85 -146 183 -235 230 -40 21 -74 41 -77 45 -2 4 6 30
20 57 29 60 29 61 7 44 -10 -7 -7 -1 6 14 27 30 41 37 20 9 -12 -15 77 63 121
106 13 13 13 14 0 7 -10 -6 -8 -1 4 13 21 25 36 31 16 7 -7 -8 -8 -15 -2 -15
11 0 39 31 34 37 -2 3 0 8 4 11 4 4 4 1 -1 -7 -5 -9 -3 -12 6 -9 8 3 14 11 14
18 0 8 15 22 33 33 17 10 32 16 32 13 0 -3 -14 -13 -31 -21 -17 -9 -29 -18
-27 -21 3 -2 40 16 84 41 137 78 360 157 539 189 168 31 274 38 467 33 176 -5
341 -25 516 -63 21 -4 24 -3 12 5 -8 6 -23 11 -33 11 -10 0 -16 4 -12 9 14 23
-207 125 -373 172 -59 16 -186 44 -282 61 -403 72 -810 28 -1137 -122 -99 -46
-201 -111 -269 -173 -42 -38 -57 -61 -79 -121 -15 -41 -28 -98 -29 -127 -1
-50 1 -53 33 -72 40 -24 258 -109 283 -110 10 -1 14 -5 10 -9 -7 -7 -241 75
-292 102 -58 31 -63 68 -24 191 20 65 35 92 72 132 209 222 677 370 1124 354
195 -6 477 -55 653 -112 151 -49 396 -179 377 -200 -4 -5 -1 -5 6 -1 9 5 33
-12 72 -51 51 -51 61 -68 84 -141 26 -83 31 -126 20 -157 -9 -21 -73 -53 -224
-110 -177 -67 -251 -108 -336 -188 -87 -81 -144 -185 -170 -307 -23 -109 -15
-272 19 -364 78 -211 263 -351 557 -422 70 -17 170 -18 1503 -21 1039 -3 1439
0 1470 8 52 14 108 71 125 126 9 31 12 386 12 1504 l0 1464 25 65 c49 129 121
184 240 184 137 0 197 -37 254 -157 54 -116 66 -143 96 -222 92 -245 239 -365
445 -365 122 1 351 68 430 128 204 154 396 496 484 862 36 150 72 400 82 560
13 233 -46 637 -122 834 -5 14 -4 17 4 12 7 -4 12 -14 12 -22 0 -8 4 -13 9 -9
5 3 13 0 17 -6 4 -8 3 -9 -4 -5 -16 10 -16 11 18 -117 55 -210 73 -348 73
-592 1 -184 -3 -241 -21 -348 -12 -70 -22 -134 -22 -143 0 -13 22 -15 160 -12
l160 3 -1 -45 c-1 -63 -16 -156 -18 -112 l-1 32 -164 0 -164 0 -12 -52 c-74
-309 -210 -574 -393 -765 -66 -69 -96 -92 -162 -123 -44 -21 -93 -42 -108 -46
-25 -6 -28 -10 -23 -33 l6 -26 -15 25 -16 25 7 -25 c17 -64 94 -190 116 -190
5 0 -4 16 -21 35 -17 20 -31 39 -31 43 0 3 15 -11 33 -33 17 -22 31 -43 29
-48 -1 -4 17 -17 40 -27 120 -55 363 12 486 133 59 59 87 101 40 61 -21 -17
-21 -16 1 9 26 28 37 36 25 14 -5 -8 -2 -8 9 2 19 15 23 36 5 25 -7 -4 -8 -3
-4 5 4 6 11 9 16 6 5 -3 20 11 34 32 28 40 33 59 14 47 -7 -4 -8 -3 -4 5 4 6
12 9 17 5 13 -8 111 201 148 316 38 118 54 186 88 382 25 137 28 177 28 388 0
277 -12 373 -77 600 -48 170 -169 429 -197 423 -5 -2 -20 12 -31 30 l-22 32
26 -30 c14 -16 26 -25 26 -20 0 6 -14 26 -31 45 -17 19 -27 28 -23 20 5 -10 0
-9 -14 4 -25 21 -31 36 -7 16 36 -30 11 10 -35 55 -31 30 -57 69 -71 104 -66
166 -173 334 -291 456 -64 68 -97 93 -152 119 -319 150 -572 120 -716 -86 -45
-64 -76 -129 -125 -263 -72 -199 -127 -272 -225 -295 -72 -17 -162 -7 -216 25
-70 41 -129 147 -153 275 -7 36 -12 541 -14 1475 -3 1378 -4 1421 -23 1459
-10 22 -36 53 -57 70 l-39 31 -1455 3 -1454 2 6 23 c4 12 18 42 31 66 29 52
25 66 -5 19 -11 -18 -21 -29 -21 -25 0 15 41 67 49 63 10 -6 74 58 66 66 -3 3
3 11 12 19 16 13 17 12 4 -3 -7 -10 -9 -18 -3 -18 11 0 29 20 32 35 1 6 4 12
7 15 4 3 3 -1 -1 -7 -10 -19 -2 -16 62 16 31 16 113 50 182 75 186 70 245 107
282 180 43 83 31 208 -32 359 -29 71 -100 167 -123 167 -6 0 9 -21 35 -47 46
-48 74 -91 65 -100 -3 -2 -8 6 -12 18 -4 13 -33 49 -63 81 -30 32 -51 58 -47
58 4 0 0 9 -10 20 -22 25 -43 27 -24 3 13 -16 12 -17 -4 -4 -9 8 -15 16 -12
19 6 6 -14 32 -25 32 -4 0 -9 -42 -12 -94 -3 -81 -8 -102 -38 -162 -39 -80
-109 -154 -193 -203 -32 -19 -122 -58 -200 -87 -211 -79 -256 -107 -287 -179
-43 -96 -34 -212 21 -278 35 -43 136 -95 205 -106 46 -8 47 -9 12 -10 -21 0
-61 8 -89 19 -150 59 -206 155 -181 307 21 125 70 167 292 249 269 99 376 184
429 340 22 65 29 194 14 234 -6 14 -13 43 -17 65 -4 22 -26 87 -48 144 -38 98
-47 111 -126 193 -134 139 -322 255 -552 341 -224 84 -571 146 -840 152 -96 2
-193 1 -215 -1z m2045 -1199 c0 -5 -5 -3 -10 5 -5 8 -10 20 -10 25 0 6 5 3 10
-5 5 -8 10 -19 10 -25z m19 -60 c0 -5 -4 -3 -9 5 -5 8 -9 22 -9 30 0 16 17
-16 18 -35z m19 -80 c0 -16 -2 -15 -8 5 -11 34 -11 60 0 35 5 -11 8 -29 8 -40z
m-7 -168 c-6 -18 -28 -49 -48 -68 l-37 -34 36 41 c20 23 39 56 43 74 4 17 9
29 12 26 3 -2 0 -20 -6 -39z m-91 -102 c0 -2 -10 -9 -22 -15 -22 -11 -22 -10
-4 4 21 17 26 19 26 11z m-80 -45 c-19 -11 -39 -19 -45 -19 -5 0 6 8 25 19 19
11 40 19 45 19 6 0 -6 -8 -25 -19z m-75 -30 c-27 -12 -43 -12 -25 0 8 5 22 9
30 9 10 0 8 -3 -5 -9z m-55 -20 c-8 -5 -19 -10 -25 -10 -5 0 -3 5 5 10 8 5 20
10 25 10 6 0 3 -5 -5 -10z m-100 -40 c-8 -5 -19 -10 -25 -10 -5 0 -3 5 5 10 8
5 20 10 25 10 6 0 3 -5 -5 -10z m-40 -14 c0 -2 -7 -7 -16 -10 -8 -3 -12 -2 -9
4 6 10 25 14 25 6z m-40 -20 c0 -2 -7 -7 -16 -10 -8 -3 -12 -2 -9 4 6 10 25
14 25 6z m-120 -80 c0 -2 -8 -10 -17 -17 -16 -13 -17 -12 -4 4 13 16 21 21 21
13z m5020 -3756 c6 -11 8 -20 6 -20 -3 0 -10 9 -16 20 -6 11 -8 20 -6 20 3 0
10 -9 16 -20z m35 -60 c9 -16 13 -30 11 -30 -3 0 -12 14 -21 30 -9 17 -13 30
-11 30 3 0 12 -13 21 -30z m54 -115 c0 -5 -8 6 -19 25 -11 19 -19 40 -19 45 0
6 8 -6 19 -25 11 -19 19 -39 19 -45z m21 -50 c0 -5 -5 -3 -10 5 -5 8 -10 20
-10 25 0 6 5 3 10 -5 5 -8 10 -19 10 -25z m20 -50 c0 -5 -5 -3 -10 5 -5 8 -10
20 -10 25 0 6 5 3 10 -5 5 -8 10 -19 10 -25z m19 -60 c0 -5 -4 -3 -9 5 -5 8
-9 22 -9 30 0 16 17 -16 18 -35z m20 -65 c0 -9 -4 -8 -9 5 -5 11 -9 27 -9 35
0 9 4 8 9 -5 5 -11 9 -27 9 -35z m20 -70 c0 -9 -4 -8 -9 5 -5 11 -9 27 -9 35
0 9 4 8 9 -5 5 -11 9 -27 9 -35z m19 -90 c0 -9 -3 -7 -8 5 -5 11 -8 29 -8 40
0 16 2 15 8 -5 4 -14 8 -32 8 -40z m9 -77 c-3 -10 -5 -4 -5 12 0 17 2 24 5 18
2 -7 2 -21 0 -30z m10 -55 c-3 -7 -5 -2 -5 12 0 14 2 19 5 13 2 -7 2 -19 0
-25z m10 -105 c-2 -16 -4 -5 -4 22 0 28 2 40 4 28 2 -13 2 -35 0 -50z m10 -95
c-2 -13 -4 -3 -4 22 0 25 2 35 4 23 2 -13 2 -33 0 -45z m-23 -427 c-4 -23 -9
-40 -11 -37 -3 3 -2 23 2 46 4 23 9 39 11 37 3 -2 2 -23 -2 -46z m-19 -116
c-4 -25 -9 -44 -12 -41 -2 2 -1 25 2 51 4 25 9 44 12 41 2 -2 1 -25 -2 -51z
m-21 -114 c-4 -17 -9 -30 -11 -27 -3 2 -2 19 2 36 9 41 17 33 9 -9z m-20 -85
c-3 -15 -8 -25 -11 -23 -2 3 -1 17 3 31 3 15 8 25 11 23 2 -3 1 -17 -3 -31z
m-23 -77 c-5 -13 -10 -19 -10 -12 -1 15 10 45 15 40 3 -2 0 -15 -5 -28z m-20
-70 c-5 -13 -10 -19 -10 -12 -1 15 10 45 15 40 3 -2 0 -15 -5 -28z m-891 -484
c0 -5 -5 -3 -10 5 -5 8 -10 20 -10 25 0 6 5 3 10 -5 5 -8 10 -19 10 -25z m630
12 c0 -2 -17 -19 -37 -38 l-38 -34 34 38 c33 34 41 42 41 34z m-90 -82 c-7 -8
-17 -15 -23 -15 -6 0 -2 7 9 15 25 19 30 19 14 0z m-40 -19 c0 -2 -7 -7 -16
-10 -8 -3 -12 -2 -9 4 6 10 25 14 25 6z m-55 -26 c-27 -12 -43 -12 -25 0 8 5
22 9 30 9 10 0 8 -3 -5 -9z m-320 -28 c-3 -3 -11 0 -18 7 -9 10 -8 11 6 5 10
-3 15 -9 12 -12z m260 8 c-27 -12 -43 -12 -25 0 8 5 22 9 30 9 10 0 8 -3 -5
-9z m-218 -16 c-3 -3 -12 -4 -19 -1 -8 3 -5 6 6 6 11 1 17 -2 13 -5z m156 -1
c-7 -2 -21 -2 -30 0 -10 3 -4 5 12 5 17 0 24 -2 18 -5z m-70 -10 c-13 -2 -35
-2 -50 0 -16 2 -5 4 22 4 28 0 40 -2 28 -4z m-5424 -527 c-2 -2 -42 -6 -89 -8
-47 -3 -72 -2 -55 2 30 8 152 13 144 6z m346 -6 c29 -6 17 -7 -40 -3 -44 3
-82 7 -84 9 -8 7 84 3 124 -6z m-546 -14 c-2 -2 -26 -6 -54 -9 -34 -4 -42 -3
-25 3 25 8 87 13 79 6z m676 -6 c27 -7 27 -8 5 -8 -14 0 -38 4 -55 8 -27 7
-27 8 -5 8 14 0 39 -4 55 -8z m-802 -17 c-7 -2 -19 -2 -25 0 -7 3 -2 5 12 5
14 0 19 -2 13 -5z m927 -3 c17 -6 9 -7 -25 -3 -27 3 -52 7 -54 9 -8 7 54 2 79
-6z m-973 -6 c-3 -3 -12 -4 -19 -1 -8 3 -5 6 6 6 11 1 17 -2 13 -5z m-40 -10
c-3 -3 -12 -4 -19 -1 -8 3 -5 6 6 6 11 1 17 -2 13 -5z m-40 -10 c-3 -3 -12 -4
-19 -1 -8 3 -5 6 6 6 11 1 17 -2 13 -5z m-52 -14 c-27 -12 -43 -12 -25 0 8 5
22 9 30 9 10 0 8 -3 -5 -9z m-65 -20 c-8 -5 -19 -10 -25 -10 -5 0 -3 5 5 10 8
5 20 10 25 10 6 0 3 -5 -5 -10z m-69 -25 c-18 -8 -36 -15 -40 -15 -13 1 45 29
59 29 8 0 0 -6 -19 -14z m-72 -28 c-12 -11 -152 -77 -144 -69 13 13 127 72
139 72 5 0 7 -2 5 -3z m-319 -190 c0 -2 -19 -21 -42 -42 l-43 -40 40 43 c36
39 45 47 45 39z m-149 -174 c-12 -20 -14 -14 -5 12 4 9 9 14 11 11 3 -2 0 -13
-6 -23z m623 -849 c3 -8 2 -12 -4 -9 -6 3 -10 10 -10 16 0 14 7 11 14 -7z m26
-59 c0 -5 -5 -3 -10 5 -5 8 -10 20 -10 25 0 6 5 3 10 -5 5 -8 10 -19 10 -25z
m7 -47 c-3 -8 -6 -5 -6 6 -1 11 2 17 5 13 3 -3 4 -12 1 -19z m10 -55 c-3 -10
-5 -4 -5 12 0 17 2 24 5 18 2 -7 2 -21 0 -30z m-2 -173 c-9 -41 -17 -33 -9 9
4 17 9 30 11 27 3 -2 2 -19 -2 -36z m-24 -67 c-12 -20 -14 -14 -5 12 4 9 9 14
11 11 3 -2 0 -13 -6 -23z m-146 -169 c-26 -20 -55 -36 -55 -30 0 5 63 46 70
46 3 -1 -4 -8 -15 -16z m-75 -44 c-8 -5 -19 -10 -25 -10 -5 0 -3 5 5 10 8 5
20 10 25 10 6 0 3 -5 -5 -10z m-50 -20 c-8 -5 -19 -10 -25 -10 -5 0 -3 5 5 10
8 5 20 10 25 10 6 0 3 -5 -5 -10z m-65 -20 c-11 -5 -27 -9 -35 -9 -9 0 -8 4 5
9 11 5 27 9 35 9 9 0 8 -4 -5 -9z m-90 -20 c-16 -4 -86 -7 -155 -7 l-125 1
130 6 c195 9 185 9 150 0z m-1082 -17 c-138 -2 -368 -2 -510 0 -142 1 -28 2
252 2 281 0 397 -1 258 -2z m-1035 -10 c-103 -2 -274 -2 -380 0 -106 1 -22 2
187 2 209 0 296 -1 193 -2z"/>
</g>
</svg>
