<?xml version="1.0" standalone="no"?>
<!DOCTYPE svg PUBLIC "-//W3C//DTD SVG 20010904//EN"
 "http://www.w3.org/TR/2001/REC-SVG-20010904/DTD/svg10.dtd">
<svg version="1.0" xmlns="http://www.w3.org/2000/svg"
 width="1280.000000pt" height="1032.000000pt" viewBox="0 0 1280.000000 1032.000000"
 preserveAspectRatio="xMidYMid meet">
<metadata>
Created by potrace 1.15, written by Peter Selinger 2001-2017
</metadata>
<g transform="translate(0.000000,1032.000000) scale(0.100000,-0.100000)"
fill="#000000" stroke="none">
<path d="M2615 10304 c-48 -18 -90 -56 -116 -106 -18 -36 -19 -84 -19 -1742 0
-1470 -2 -1715 -15 -1783 -33 -172 -99 -281 -200 -329 -41 -19 -66 -24 -135
-23 -101 0 -137 11 -210 66 -67 49 -93 94 -165 287 -29 79 -70 177 -90 218
-150 309 -427 393 -814 247 -140 -52 -180 -78 -275 -174 -217 -219 -393 -566
-476 -935 -33 -147 -79 -442 -91 -576 -43 -491 90 -1103 321 -1479 97 -158
256 -339 345 -391 67 -39 208 -93 298 -114 254 -59 407 -24 553 124 84 86 122
157 209 390 107 288 168 346 366 346 70 0 99 -5 134 -21 85 -40 142 -126 192
-286 l27 -88 3 -430 c2 -236 7 -1006 12 -1710 9 -1413 4 -1316 72 -1384 59
-59 71 -61 410 -61 l309 0 2 -171 3 -170 295 0 c747 2 3012 21 3075 26 162 14
367 93 463 179 30 28 49 53 45 59 -3 7 -3 9 2 5 9 -9 35 9 35 24 0 6 -8 4 -17
-3 -16 -13 -17 -12 -4 3 7 10 17 15 22 13 10 -7 46 61 65 124 19 63 18 237 -2
314 -18 71 -61 160 -73 152 -5 -2 -15 3 -22 13 -13 15 -12 16 4 3 36 -28 15 6
-31 52 -47 46 -78 64 -51 30 13 -16 12 -17 -3 -5 -10 8 -16 19 -15 24 1 6 -4
13 -12 16 -9 3 -11 0 -6 -8 5 -9 4 -11 -4 -6 -6 4 -9 11 -6 16 3 5 -21 23 -55
40 l-60 30 0 71 c0 139 -45 288 -121 405 -93 143 -251 248 -528 351 -175 65
-228 94 -237 130 -9 34 10 126 42 212 92 244 591 479 1130 532 330 32 874 -46
1184 -171 211 -84 441 -244 489 -339 32 -61 61 -171 61 -226 0 -75 -7 -80
-254 -174 -85 -33 -196 -80 -246 -106 -154 -80 -280 -216 -338 -365 -36 -95
-43 -131 -49 -266 -7 -155 8 -241 63 -354 66 -139 174 -248 327 -330 96 -52
192 -84 343 -115 l121 -25 1694 2 1694 3 40 22 c46 24 75 54 101 103 23 42 22
-114 11 1930 -5 833 -11 1526 -14 1540 -4 17 -2 22 5 15 6 -7 14 -593 21
-1715 11 -1553 10 -1709 -4 -1752 -18 -50 -67 -108 -118 -135 -30 -17 -137
-18 -1739 -23 l-1708 -5 21 -34 c11 -18 23 -30 26 -27 9 8 94 -75 87 -85 -2
-4 12 -19 33 -33 40 -28 59 -33 47 -14 -4 7 -3 8 5 4 6 -4 9 -11 6 -16 -7 -11
66 -44 175 -78 l85 -27 690 -2 c380 -2 1151 -4 1715 -5 l1025 -3 -6 830 c-3
457 -7 1176 -8 1600 -1 803 -8 997 -40 1105 -37 129 -110 278 -130 265 -5 -2
-15 3 -22 13 -13 15 -12 16 4 3 32 -26 17 3 -25 46 -42 43 -73 59 -47 26 11
-16 11 -16 -1 -5 -8 7 -15 18 -15 24 0 6 -6 13 -14 16 -9 3 -11 0 -6 -8 5 -9
4 -11 -4 -6 -6 4 -9 11 -6 16 3 4 -10 17 -28 27 -30 18 -33 25 -45 100 -25
159 -101 338 -197 462 -147 192 -384 287 -647 260 -275 -27 -468 -157 -592
-398 -24 -47 -67 -149 -96 -226 -88 -235 -108 -265 -177 -265 -83 0 -295 82
-279 108 2 4 -7 52 -20 107 -71 294 -93 614 -59 875 59 463 141 754 281 1002
46 82 51 94 32 82 -7 -4 -8 -3 -4 5 4 6 11 9 16 6 5 -3 18 8 29 24 26 36 27
48 4 30 -16 -13 -17 -12 -4 4 8 9 16 15 19 12 7 -7 32 15 32 27 0 6 -8 4 -17
-3 -16 -13 -17 -12 -4 3 7 10 17 16 21 13 8 -5 126 126 123 136 -1 4 7 15 19
25 12 11 18 13 14 7 -10 -18 0 -16 31 4 29 20 25 23 81 -75 79 -138 178 -235
307 -297 98 -47 172 -65 301 -72 l111 -6 22 -44 c12 -24 25 -41 30 -38 5 3 13
0 17 -6 4 -8 3 -9 -4 -5 -41 25 25 -71 86 -126 90 -81 205 -118 370 -118 148
0 240 34 342 127 42 37 57 70 18 37 -21 -17 -21 -16 1 9 26 28 37 36 25 15 -5
-9 -2 -9 9 1 19 15 23 36 5 25 -7 -4 -8 -3 -4 5 4 6 11 9 16 6 12 -7 73 113
94 185 46 155 46 136 46 1888 l0 1652 -167 2 -168 2 170 6 170 6 -182 2 -183
2 0 307 c0 291 -1 309 -21 350 -25 52 -76 96 -129 112 -48 14 -3237 -4 -3420
-19 -153 -13 -281 -49 -418 -116 -184 -91 -313 -227 -377 -398 -69 -185 -52
-444 42 -631 90 -177 240 -286 557 -404 270 -101 279 -112 236 -270 -44 -158
-98 -225 -273 -339 -310 -201 -832 -320 -1247 -283 -345 30 -690 110 -899 207
-165 77 -349 212 -399 292 -37 61 -74 191 -70 253 3 54 3 54 53 81 28 15 106
48 175 73 436 161 597 326 655 669 3 21 9 36 12 33 9 -10 -27 -168 -53 -230
-88 -218 -246 -347 -569 -466 -162 -60 -223 -87 -247 -109 -32 -28 -23 -108
29 -245 21 -56 35 -77 88 -124 89 -80 188 -145 197 -130 5 8 8 5 8 -7 0 -11
11 1 25 30 30 58 30 60 8 43 -16 -13 -17 -12 -4 3 7 10 17 16 21 13 9 -5 42
29 35 37 -3 3 5 13 17 24 12 10 18 13 13 5 -5 -9 -3 -12 6 -9 8 3 14 10 14 16
0 5 4 14 9 19 5 5 6 3 2 -4 -10 -18 -2 -16 52 11 26 13 106 45 177 71 337 124
455 228 500 440 43 205 -3 374 -137 500 -37 36 -74 65 -81 65 -6 0 2 -12 18
-26 l30 -26 -33 22 c-18 12 -30 26 -27 31 3 5 -18 21 -48 35 l-54 27 -6 101
c-12 198 -72 341 -196 466 -141 142 -298 219 -540 264 -74 14 -282 16 -1800
15 -1475 0 -1722 -2 -1756 -15z"/>

</g>
</svg>
