<?xml version="1.0" standalone="no"?>
<!DOCTYPE svg PUBLIC "-//W3C//DTD SVG 20010904//EN"
 "http://www.w3.org/TR/2001/REC-SVG-20010904/DTD/svg10.dtd">
<svg version="1.0" xmlns="http://www.w3.org/2000/svg"
 width="1031.000000pt" height="1280.000000pt" viewBox="0 0 1031.000000 1280.000000"
 preserveAspectRatio="xMidYMid meet">
<metadata>
Created by potrace 1.15, written by Peter Selinger 2001-2017
</metadata>
<g transform="translate(0.000000,1280.000000) scale(0.100000,-0.100000)"
fill="#000000" stroke="none">
<path d="M140 12787 c-50 -16 -114 -84 -129 -137 -9 -35 -11 -423 -9 -1760 4
-1889 -1 -1745 64 -1939 118 -354 374 -560 697 -561 54 0 87 -4 87 -10 0 -6
16 -36 36 -67 120 -188 316 -265 557 -219 220 42 324 157 448 494 64 172 100
243 154 301 24 25 43 51 44 56 0 6 13 17 28 25 38 22 39 35 2 83 -83 108 -164
175 -195 163 -8 -3 -12 -1 -9 4 9 14 -103 44 -170 44 -45 1 -59 -2 -57 -12 1
-8 -1 -11 -6 -8 -5 3 -15 -7 -24 -22 -21 -35 -150 -372 -151 -394 -1 -9 -4
-15 -8 -12 -4 2 -10 -5 -14 -15 -3 -11 -28 -53 -54 -93 -62 -95 -179 -204
-269 -250 -39 -20 -67 -40 -64 -44 4 -4 2 -4 -4 -1 -7 4 -47 -2 -89 -13 -43
-11 -91 -20 -107 -20 l-29 0 23 -41 c61 -110 195 -206 319 -229 l54 -9 -51 4
c-109 8 -236 91 -308 199 -49 75 -53 86 -27 86 54 0 183 35 256 69 197 92 307
237 432 570 58 156 84 210 108 235 27 27 108 20 219 -18 111 -39 135 -57 228
-181 l60 -79 -28 -10 c-29 -9 -75 -36 -62 -36 4 0 23 7 42 16 19 9 41 14 49
11 19 -7 67 -93 116 -209 120 -280 187 -698 162 -1003 -15 -171 -71 -509 -107
-635 -40 -139 -115 -319 -177 -423 -65 -109 -174 -240 -219 -263 -53 -28 -170
-64 -225 -71 -51 -6 -54 -5 -87 32 -36 39 -59 88 -122 260 -20 55 -55 137 -77
181 -131 267 -337 403 -637 421 -375 22 -643 -177 -777 -577 l-28 -85 -3
-1815 c-3 -2040 -10 -1865 74 -1939 31 -27 61 -43 95 -50 34 -8 589 -11 1778
-11 1559 0 1733 -2 1782 -16 68 -20 143 -58 191 -96 39 -30 88 -117 88 -155
l0 -23 -1625 0 -1625 0 0 135 0 135 1458 -2 1457 -3 -1452 -2 -1453 -3 0 -125
0 -125 1615 0 c1444 0 1615 2 1615 15 0 49 -89 171 -117 161 -8 -3 -11 -1 -8
4 8 12 -85 57 -158 76 -43 11 -305 14 -1509 14 l-1458 0 0 -145 0 -145 1636 0
1637 0 -5 -62 c-15 -185 -81 -246 -373 -353 -288 -105 -400 -186 -474 -346
-63 -134 -62 -299 4 -494 69 -205 116 -276 267 -403 156 -131 383 -259 583
-328 50 -18 102 -45 138 -73 31 -24 60 -41 63 -38 4 4 -1 10 -10 13 -14 5 -15
9 -4 16 10 7 10 8 -2 6 -8 -1 -28 6 -45 16 -16 9 -22 15 -13 12 73 -22 282
-68 368 -81 58 -8 143 -22 190 -31 118 -21 479 -30 621 -15 610 64 1093 274
1384 601 105 118 185 358 185 556 0 261 -145 431 -465 544 -127 44 -281 116
-324 150 -63 50 -92 116 -99 226 -9 147 43 234 180 301 141 69 95 65 1028 73
465 4 1236 8 1714 9 652 1 879 4 910 13 58 17 129 91 144 148 15 60 -3 3341
-19 3475 -53 439 -286 744 -619 811 -165 33 -378 5 -523 -68 -186 -93 -289
-230 -406 -540 -104 -276 -116 -290 -228 -269 -108 20 -202 60 -246 105 -158
161 -288 419 -361 718 -95 385 -87 804 24 1265 68 284 201 551 348 700 51 52
67 62 152 91 64 22 113 32 152 32 56 0 59 -1 83 -39 27 -40 43 -78 101 -241
19 -52 28 -87 20 -78 -7 10 -16 15 -20 11 -4 -4 -4 0 -1 8 7 18 -64 213 -99
274 -12 22 -28 39 -35 37 -7 -1 -10 2 -6 8 8 13 -68 13 -120 -1 -120 -32 -173
-60 -231 -122 -143 -154 -260 -391 -329 -667 -13 -52 -39 -183 -57 -290 -31
-183 -33 -210 -33 -430 0 -178 5 -261 18 -343 42 -248 109 -465 193 -626 45
-84 134 -225 139 -219 2 2 -3 28 -11 58 -8 30 -14 61 -13 70 0 8 11 -25 23
-73 13 -48 27 -91 31 -95 4 -4 5 4 2 18 -104 407 -118 723 -52 1135 55 338
104 513 206 724 76 160 150 269 251 377 66 69 137 124 161 124 2 0 24 -42 51
-94 131 -260 335 -394 627 -413 l89 -6 25 -44 c15 -24 30 -41 34 -39 4 3 24
-15 45 -39 68 -82 155 -128 286 -150 50 -9 63 -13 40 -14 -99 -3 -224 52 -307
135 -35 34 -63 58 -63 54 0 -5 24 -34 54 -65 115 -117 334 -172 515 -130 177
42 307 174 377 382 55 162 54 124 54 1915 l0 1657 -147 4 -148 3 148 2 c96 1
146 6 142 12 -4 6 -65 10 -151 10 l-144 0 2 -1464 c2 -805 0 -1460 -3 -1455
-3 5 -11 -26 -18 -69 -7 -42 -24 -111 -38 -152 -98 -289 -292 -484 -538 -544
-77 -18 -145 -26 -145 -16 0 4 28 10 63 13 289 27 536 268 626 609 44 170 44
154 39 1941 -5 1600 -6 1705 -23 1745 -21 52 -85 109 -137 123 -27 7 -496 7
-1521 0 -1916 -14 -1928 -14 -2048 -40 -356 -77 -597 -277 -676 -561 -26 -95
-23 -307 6 -415 34 -130 85 -219 176 -311 117 -118 170 -147 544 -289 94 -35
151 -85 151 -129 0 -39 -21 -120 -51 -201 -17 -46 -37 -74 -83 -118 -197 -189
-532 -331 -911 -387 -282 -42 -476 -37 -815 21 -276 47 -448 98 -623 183 -101
50 -268 168 -328 232 -61 65 -123 257 -106 326 9 36 59 64 232 128 261 98 358
152 464 260 102 105 174 262 188 407 4 46 9 60 19 56 9 -3 11 -10 5 -21 -5
-10 -12 -39 -16 -67 -20 -145 -93 -285 -205 -395 -84 -83 -140 -120 -283 -184
-53 -24 -93 -46 -90 -50 4 -4 0 -4 -8 -1 -16 6 -164 -47 -238 -85 -25 -12 -39
-25 -35 -32 4 -7 3 -8 -4 -4 -7 4 -14 -4 -18 -20 -8 -32 24 -177 37 -169 5 4
6 -1 3 -9 -9 -25 33 -106 78 -148 24 -22 69 -60 102 -84 l58 -44 24 48 c13 26
41 64 61 84 39 38 148 108 167 108 6 0 -13 -14 -43 -30 -71 -39 -115 -73 -145
-113 -29 -37 -60 -107 -49 -107 5 0 16 20 26 44 38 92 142 163 351 237 272 97
400 186 463 319 77 164 76 375 -4 522 -33 61 -122 146 -196 188 l-57 32 0 82
c0 312 -209 570 -555 685 -193 64 -98 61 -1990 60 -1231 -1 -1730 -4 -1755
-12z"/>
</g>
</svg>
