<?xml version="1.0" standalone="no"?>
<!DOCTYPE svg PUBLIC "-//W3C//DTD SVG 20010904//EN"
 "http://www.w3.org/TR/2001/REC-SVG-20010904/DTD/svg10.dtd">
<svg version="1.0" xmlns="http://www.w3.org/2000/svg"
 width="1280.000000pt" height="1072.000000pt" viewBox="0 0 1280.000000 1072.000000"
 preserveAspectRatio="xMidYMid meet">
<metadata>
Created by potrace 1.15, written by Peter Selinger 2001-2017
</metadata>
<g transform="translate(0.000000,1072.000000) scale(0.100000,-0.100000)"
fill="#000000" stroke="none">
<path d="M2203 10709 c-44 -13 -100 -70 -112 -116 -7 -26 -11 -506 -11 -1478
0 -1268 -2 -1448 -15 -1500 -53 -204 -158 -284 -333 -256 -54 9 -70 17 -121
62 -65 57 -82 88 -151 275 -97 260 -208 374 -392 404 -118 18 -317 -26 -460
-102 -73 -39 -195 -165 -272 -281 -151 -227 -237 -476 -303 -877 -24 -145 -27
-191 -26 -385 0 -177 4 -246 22 -350 69 -414 212 -732 431 -956 92 -95 141
-123 299 -173 128 -40 233 -51 314 -32 93 22 142 49 207 115 66 66 111 150
179 331 91 240 122 273 283 295 66 10 145 -15 191 -60 44 -42 76 -103 107
-200 l23 -70 8 -1410 c5 -775 11 -1429 14 -1451 7 -51 46 -113 88 -139 31 -20
61 -20 1522 -25 l1490 -5 60 -23 c113 -43 196 -126 194 -194 0 -15 -5 -7 -14
21 -24 78 -102 138 -224 175 -49 14 -181 16 -1268 16 l-1213 0 0 -122 0 -123
1366 3 1367 2 -5 -69 c-4 -50 -12 -82 -31 -113 -40 -69 -91 -100 -277 -167
-267 -98 -384 -197 -426 -361 -32 -125 -2 -301 81 -476 80 -167 335 -355 637
-470 51 -19 102 -39 113 -44 31 -15 214 -55 390 -87 146 -25 181 -28 405 -28
190 0 270 4 355 18 413 68 734 212 961 429 70 67 92 97 124 163 21 44 46 107
56 140 9 33 19 55 21 49 5 -16 -32 -124 -69 -204 -77 -162 -364 -371 -658
-478 -278 -102 -641 -155 -917 -133 -137 11 -371 46 -505 76 -37 8 -71 14 -75
13 -5 -1 -18 3 -30 10 -13 7 -23 10 -23 7 0 -12 147 -99 243 -145 167 -79 300
-118 579 -167 139 -25 175 -28 393 -28 255 1 346 10 536 59 109 27 267 85 354
129 88 43 197 116 191 126 -3 5 2 15 12 22 15 13 16 12 3 -3 -7 -10 -9 -18 -4
-18 12 0 50 40 45 47 -2 2 22 31 52 63 31 32 56 56 56 52 0 -4 -26 -32 -57
-64 -32 -32 -53 -58 -47 -58 17 0 100 93 122 136 41 81 74 207 75 284 1 83
-13 122 -66 177 -30 32 -56 45 -41 21 4 -7 3 -8 -5 -4 -6 4 -9 12 -5 17 5 9
-132 79 -157 79 -7 0 -9 8 -5 23 15 52 18 159 6 219 -33 168 -136 271 -357
358 -51 20 -96 39 -99 43 -3 3 4 23 15 46 24 47 26 55 9 45 -8 -4 -10 -3 -5 2
5 5 14 9 20 9 5 0 12 6 15 14 3 9 0 11 -8 6 -9 -5 -11 -4 -6 4 4 6 11 9 15 7
9 -6 84 68 76 76 -3 3 2 11 12 19 14 12 15 12 9 0 -6 -9 -4 -12 5 -9 8 3 14
10 14 16 0 5 4 14 9 19 5 5 6 3 2 -4 -10 -18 -6 -17 62 17 32 16 92 39 133 51
l74 22 1430 7 c787 4 1433 6 1437 3 4 -2 9 668 10 1489 l3 1493 28 67 c16 36
42 88 58 113 17 26 28 49 26 51 -2 3 -18 -17 -36 -43 -17 -26 -31 -43 -31 -38
1 17 70 106 79 101 5 -3 16 3 26 14 10 11 14 20 10 20 -12 0 27 40 50 52 11 6
4 -4 -15 -21 l-35 -31 59 35 c33 19 63 35 68 35 4 0 8 5 8 10 0 7 -7 7 -22 0
-21 -10 -22 -10 -5 3 17 14 17 18 -12 81 -42 94 -68 126 -117 148 -57 25 -157
33 -212 19 -62 -17 -122 -80 -155 -164 l-27 -67 0 -1474 c0 -1074 -3 -1482
-11 -1507 -18 -52 -56 -97 -102 -121 l-42 -22 -1445 -6 c-1553 -7 -1471 -4
-1591 -57 -55 -24 -114 -75 -137 -117 -11 -22 -16 -55 -16 -111 1 -151 52
-211 238 -279 10 -3 16 -9 13 -12 -3 -3 -43 12 -89 33 -108 51 -150 96 -168
181 -36 170 31 275 214 338 l81 28 1441 7 c1029 5 1452 10 1476 18 36 12 86
58 109 101 12 21 15 281 19 1525 l5 1500 31 65 c54 113 121 159 230 160 90 0
155 -23 197 -69 45 -50 51 -62 131 -259 36 -89 81 -186 99 -215 99 -154 257
-224 445 -198 46 7 85 11 87 9 1 -2 19 -38 38 -81 20 -43 41 -76 46 -73 5 3
15 -2 22 -12 13 -15 12 -16 -3 -3 -10 7 -18 9 -18 3 0 -15 26 -33 35 -24 5 4
5 2 2 -4 -8 -15 19 -39 66 -59 108 -45 359 16 459 113 26 25 44 50 41 56 -3 6
-2 8 2 3 9 -8 45 20 45 36 0 6 -10 2 -22 -9 l-23 -19 19 23 c11 12 21 20 24
17 7 -7 32 15 32 27 0 6 -8 4 -17 -3 -16 -13 -17 -12 -4 3 7 10 17 15 22 13 4
-3 19 11 33 32 28 40 33 59 14 47 -7 -4 -8 -3 -4 5 4 6 11 9 16 6 13 -8 86
141 131 267 46 128 70 226 106 429 25 139 28 178 28 389 0 296 -21 442 -100
680 -39 118 -144 335 -162 335 -6 0 -15 4 -20 9 -5 5 -2 6 6 1 9 -5 12 -3 9 6
-3 8 -10 14 -16 14 -6 0 -17 7 -24 15 -11 12 -11 12 5 1 20 -16 23 1 3 18 -25
21 -27 -4 -6 -91 46 -197 55 -283 55 -543 0 -238 -2 -258 -33 -431 -17 -100
-32 -184 -32 -188 0 -4 66 -5 148 -4 l147 3 6 60 6 60 1 -50 c1 -55 -15 -160
-17 -112 l-1 27 -149 0 -149 0 -7 -37 c-16 -85 -98 -311 -151 -416 -79 -156
-143 -247 -254 -358 -84 -84 -104 -100 -174 -128 -95 -40 -166 -62 -166 -52 0
4 21 13 47 19 26 7 84 30 129 51 225 106 448 456 554 870 11 44 35 163 52 263
31 173 32 196 32 428 -1 206 -4 265 -22 368 -21 115 -53 258 -69 298 -4 12 -3
15 5 10 7 -4 12 -17 12 -29 0 -16 3 -18 12 -9 9 9 6 18 -15 40 -15 16 -40 62
-56 103 -93 240 -193 400 -339 545 -72 71 -133 107 -254 147 -114 38 -190 50
-276 44 -120 -8 -184 -37 -267 -121 -80 -80 -107 -129 -184 -335 -86 -226
-135 -279 -272 -289 l-69 -5 0 1373 0 1373 -132 -4 -133 -4 -5 250 c-4 207 -8
255 -21 280 -22 40 -47 61 -93 80 -35 15 -164 15 -1470 5 -1358 -11 -1436 -12
-1529 -31 -295 -59 -497 -220 -570 -454 -28 -89 -30 -257 -4 -355 57 -218 189
-350 447 -450 58 -22 130 -50 160 -62 69 -26 118 -62 125 -91 7 -27 -27 -162
-54 -215 -35 -69 -189 -185 -335 -252 -115 -53 -281 -104 -426 -131 -106 -20
-159 -23 -350 -23 -202 -1 -240 2 -376 27 -393 71 -616 165 -795 337 -52 50
-60 64 -84 141 -34 111 -31 156 11 184 18 12 90 43 160 70 195 72 297 128 375
205 75 75 111 130 147 233 21 61 25 90 26 197 1 76 -4 147 -13 180 -56 228
-240 394 -521 471 l-85 24 -1475 2 c-904 1 -1488 -2 -1507 -8z m8517 -1983 l0
-1365 -31 9 c-84 24 -147 97 -190 217 l-24 68 0 1215 -1 1215 6 -1210 c5
-1145 6 -1213 24 -1265 37 -111 87 -184 148 -216 63 -33 58 -148 58 1341 0
745 2 1355 5 1355 3 0 5 -614 5 -1364z m-182 1347 c-10 -2 -26 -2 -35 0 -10 3
-2 5 17 5 19 0 27 -2 18 -5z m2012 -2973 c6 -11 8 -20 6 -20 -3 0 -10 9 -16
20 -6 11 -8 20 -6 20 3 0 10 -9 16 -20z m24 -46 c3 -8 2 -12 -4 -9 -6 3 -10
10 -10 16 0 14 7 11 14 -7z m55 -119 c0 -5 -6 1 -14 15 -8 14 -14 30 -14 35 0
6 6 -1 14 -15 8 -14 14 -29 14 -35z m30 -80 c0 -5 -4 -3 -9 5 -5 8 -9 22 -9
30 0 16 17 -16 18 -35z m21 -50 c0 -5 -5 -3 -10 5 -5 8 -10 20 -10 25 0 6 5 3
10 -5 5 -8 10 -19 10 -25z m19 -70 c0 -5 -4 -3 -9 5 -5 8 -9 22 -9 30 0 16 17
-16 18 -35z m20 -75 c0 -9 -4 -8 -9 5 -5 11 -9 27 -9 35 0 9 4 8 9 -5 5 -11 9
-27 9 -35z m8 -52 c-3 -8 -6 -5 -6 6 -1 11 2 17 5 13 3 -3 4 -12 1 -19z m10
-40 c-3 -8 -6 -5 -6 6 -1 11 2 17 5 13 3 -3 4 -12 1 -19z m21 -118 c0 -22 -1
-22 -8 5 -4 17 -8 41 -8 55 0 22 1 22 8 -5 4 -16 8 -41 8 -55z m9 -117 c-2
-16 -4 -5 -4 22 0 28 2 40 4 28 2 -13 2 -35 0 -50z m10 -95 c-2 -13 -4 -3 -4
22 0 25 2 35 4 23 2 -13 2 -33 0 -45z m-23 -422 c-3 -21 -8 -35 -11 -32 -2 2
-1 20 3 40 3 21 8 35 11 32 2 -2 1 -20 -3 -40z m-19 -121 c-4 -25 -9 -44 -12
-41 -2 2 -1 25 2 51 4 25 9 44 12 41 2 -2 1 -25 -2 -51z m-21 -114 c-4 -17 -9
-30 -11 -27 -3 2 -2 19 2 36 9 41 17 33 9 -9z m-20 -85 c-3 -15 -8 -25 -11
-23 -2 3 -1 17 3 31 3 15 8 25 11 23 2 -3 1 -17 -3 -31z m-23 -77 c-5 -13 -10
-19 -10 -12 -1 15 10 45 15 40 3 -2 0 -15 -5 -28z m-21 -66 c-11 -17 -11 -17
-6 0 3 10 6 24 7 30 0 9 2 9 5 0 3 -7 0 -20 -6 -30z m-17 -53 c-3 -12 -8 -19
-11 -16 -5 6 5 36 12 36 2 0 2 -9 -1 -20z m-20 -50 c-3 -12 -8 -19 -11 -16 -5
6 5 36 12 36 2 0 2 -9 -1 -20z m-1840 -75 c-3 -9 -8 -14 -10 -11 -3 3 -2 9 2
15 9 16 15 13 8 -4z m-22 -52 c-12 -20 -14 -14 -5 12 4 9 9 14 11 11 3 -2 0
-13 -6 -23z m-20 -64 c-5 -13 -10 -19 -10 -12 -1 15 10 45 15 40 3 -2 0 -15
-5 -28z m-11 -1499 l0 -1470 -617 2 -618 3 613 2 612 3 0 1465 c0 806 2 1465
5 1465 3 0 5 -661 5 -1470z m1020 1345 c0 -5 -5 -3 -10 5 -5 8 -10 20 -10 25
0 6 5 3 10 -5 5 -8 10 -19 10 -25z m24 -51 c3 -8 2 -12 -4 -9 -6 3 -10 10 -10
16 0 14 7 11 14 -7z m606 3 c0 -2 -12 -14 -27 -28 l-28 -24 24 28 c23 25 31
32 31 24z m-79 -67 c-13 -11 -28 -20 -35 -20 -6 0 3 9 19 19 39 25 46 25 16 1z
m-61 -30 c-8 -5 -19 -10 -25 -10 -5 0 -3 5 5 10 8 5 20 10 25 10 6 0 3 -5 -5
-10z m-379 -17 c13 -16 12 -17 -3 -4 -17 13 -22 21 -14 21 2 0 10 -8 17 -17z
m329 -3 c-8 -5 -22 -9 -30 -9 -10 0 -8 3 5 9 27 12 43 12 25 0z m-280 -20 c8
-5 11 -10 5 -10 -5 0 -17 5 -25 10 -8 5 -10 10 -5 10 6 0 17 -5 25 -10z m215
0 c-11 -5 -27 -9 -35 -9 -9 0 -8 4 5 9 11 5 27 9 35 9 9 0 8 -4 -5 -9z m-97
-17 c-15 -2 -42 -2 -60 0 -18 2 -6 4 27 4 33 0 48 -2 33 -4z m-7935 -2606
l1342 -2 -1347 -3 -1348 -2 2 113 2 112 3 -107 4 -108 1342 -3z m4785 -14
c-174 -2 -462 -2 -640 0 -178 1 -35 2 317 2 352 0 497 -1 323 -2z m-969 -7
c-2 -2 -26 -6 -54 -9 -32 -4 -43 -3 -30 3 19 8 93 14 84 6z m-110 -20 c-2 -2
-17 -6 -34 -10 -22 -5 -26 -4 -15 4 14 9 59 15 49 6z m-120 -40 c-10 -9 -69
-36 -69 -32 0 7 52 35 64 36 5 0 7 -2 5 -4z m-159 -99 c0 -2 -12 -14 -27 -28
l-28 -24 24 28 c23 25 31 32 31 24z m-97 -132 c-3 -9 -8 -14 -10 -11 -3 3 -2
9 2 15 9 16 15 13 8 -4z m497 -735 c18 -12 2 -12 -25 0 -13 6 -15 9 -5 9 8 0
22 -4 30 -9z m155 -90 c10 -11 16 -20 13 -20 -3 0 -13 9 -23 20 -10 11 -16 20
-13 20 3 0 13 -9 23 -20z m45 -75 c6 -19 10 -39 8 -44 -2 -5 -10 12 -19 39 -8
27 -12 47 -8 44 4 -2 13 -20 19 -39z m5 -175 c-4 -23 -9 -39 -11 -37 -3 2 -2
23 2 46 4 23 9 40 11 37 3 -3 2 -23 -2 -46z m-25 -87 c-11 -17 -11 -17 -6 0 3
10 6 24 7 30 0 9 2 9 5 0 3 -7 0 -20 -6 -30z m-37 -98 c-3 -9 -8 -14 -10 -11
-3 3 -2 9 2 15 9 16 15 13 8 -4z m-2358 -230 l20 -16 -20 10 c-11 5 -29 17
-40 26 l-20 16 20 -10 c11 -5 29 -17 40 -26z m2120 -3 c-18 -15 -85 -54 -85
-48 0 3 19 16 43 30 43 26 59 33 42 18z m-1949 -90 c-5 -4 -146 66 -146 73 0
3 34 -12 75 -32 41 -20 73 -39 71 -41z m44 -12 c8 -5 11 -10 5 -10 -5 0 -17 5
-25 10 -8 5 -10 10 -5 10 6 0 17 -5 25 -10z m1730 6 c0 -2 -7 -7 -16 -10 -8
-3 -12 -2 -9 4 6 10 25 14 25 6z m-70 -31 c-14 -8 -29 -14 -35 -14 -5 0 1 6
15 14 14 8 30 14 35 14 6 0 -1 -6 -15 -14z m-1550 -15 c8 -5 11 -10 5 -10 -5
0 -17 5 -25 10 -8 5 -10 10 -5 10 6 0 17 -5 25 -10z m1460 -20 c-8 -5 -19 -10
-25 -10 -5 0 -3 5 5 10 8 5 20 10 25 10 6 0 3 -5 -5 -10z m-1315 -20 c25 -11
-1 -11 -35 0 -20 6 -21 8 -5 8 11 0 29 -3 40 -8z m1250 0 c-27 -12 -43 -12
-25 0 8 5 22 9 30 9 10 0 8 -3 -5 -9z m-1188 -16 c-3 -3 -12 -4 -19 -1 -8 3
-5 6 6 6 11 1 17 -2 13 -5z m1118 -4 c-11 -5 -27 -9 -35 -9 -9 0 -8 4 5 9 11
5 27 9 35 9 9 0 8 -4 -5 -9z m-1078 -6 c-3 -3 -12 -4 -19 -1 -8 3 -5 6 6 6 11
1 17 -2 13 -5z m103 -14 c20 -6 21 -8 5 -8 -11 0 -33 4 -50 8 -27 7 -27 8 -5
8 14 0 36 -4 50 -8z m907 4 c-3 -3 -12 -4 -19 -1 -8 3 -5 6 6 6 11 1 17 -2 13
-5z m-40 -10 c-3 -3 -12 -4 -19 -1 -8 3 -5 6 6 6 11 1 17 -2 13 -5z m-747 -14
c20 -6 21 -8 5 -8 -11 0 -31 4 -45 8 -20 6 -21 8 -5 8 11 0 31 -4 45 -8z m683
3 c-7 -2 -21 -2 -30 0 -10 3 -4 5 12 5 17 0 24 -2 18 -5z m-60 -10 c-7 -2 -19
-2 -25 0 -7 3 -2 5 12 5 14 0 19 -2 13 -5z m-515 -10 c-10 -2 -26 -2 -35 0
-10 3 -2 5 17 5 19 0 27 -2 18 -5z m435 0 c-13 -2 -35 -2 -50 0 -16 2 -5 4 22
4 28 0 40 -2 28 -4z m-325 -10 c-15 -2 -42 -2 -60 0 -18 2 -6 4 27 4 33 0 48
-2 33 -4z m225 0 c-13 -2 -33 -2 -45 0 -13 2 -3 4 22 4 25 0 35 -2 23 -4z"/>
</g>
</svg>
