<?xml version="1.0" standalone="no"?>
<!DOCTYPE svg PUBLIC "-//W3C//DTD SVG 20010904//EN"
 "http://www.w3.org/TR/2001/REC-SVG-20010904/DTD/svg10.dtd">
<svg version="1.0" xmlns="http://www.w3.org/2000/svg"
 width="1280.000000pt" height="1274.000000pt" viewBox="0 0 1280.000000 1274.000000"
 preserveAspectRatio="xMidYMid meet">
<metadata>
Created by potrace 1.15, written by Peter Selinger 2001-2017
</metadata>
<g transform="translate(0.000000,1274.000000) scale(0.100000,-0.100000)"
fill="#000000" stroke="none">
<path d="M4687 12729 c-511 -45 -965 -217 -1274 -482 -112 -95 -169 -169 -214
-274 -141 -330 -122 -586 57 -759 75 -73 164 -121 359 -194 189 -71 263 -110
312 -162 54 -60 68 -103 68 -223 0 -91 -2 -104 -27 -147 -46 -77 -137 -136
-280 -180 l-73 -23 -1735 -5 -1735 -5 -38 -23 c-44 -28 -80 -73 -96 -121 -15
-46 -16 -3317 -1 -3441 28 -229 118 -441 245 -577 157 -170 346 -243 590 -229
127 7 198 25 305 78 67 32 102 58 165 122 120 120 159 193 289 541 57 152 79
167 204 136 172 -42 228 -85 364 -281 89 -129 159 -293 213 -504 56 -221 69
-333 69 -586 0 -207 -3 -240 -33 -414 -39 -232 -59 -320 -105 -459 -69 -210
-173 -394 -293 -519 -58 -59 -75 -70 -150 -97 -108 -40 -199 -43 -230 -8 -27
28 -71 123 -118 252 -44 120 -114 262 -162 327 -54 75 -156 162 -235 202 -114
57 -211 78 -363 80 -154 1 -207 -10 -330 -69 -200 -96 -347 -295 -416 -562
-18 -74 -19 -125 -19 -1857 0 -1225 3 -1793 11 -1819 13 -47 70 -113 118 -135
32 -14 74 -16 353 -13 l318 3 2 -154 2 -153 3 146 4 146 52 7 c28 3 302 6 607
6 305 1 920 5 1365 10 870 10 866 10 1039 66 150 48 250 108 357 214 70 70
105 114 132 167 45 87 77 205 77 284 0 46 3 57 14 53 10 -4 12 -14 6 -42 -5
-20 -13 -68 -20 -106 -41 -253 -249 -474 -537 -572 -205 -69 -144 -65 -1263
-75 -558 -5 -1196 -12 -1417 -15 l-403 -6 0 -134 0 -134 298 0 c904 0 3025 21
3097 31 131 18 345 95 330 119 -3 5 0 12 6 16 8 4 9 3 5 -4 -10 -17 6 -15 32
4 12 8 20 19 17 23 -2 5 5 17 18 27 l22 19 -19 -22 c-32 -38 -3 -26 37 15 43
44 50 67 9 31 l-27 -24 24 27 c13 15 28 26 34 25 17 -3 74 110 86 171 17 84
13 200 -8 285 -22 85 -47 140 -61 132 -5 -3 -12 0 -16 6 -5 8 -3 9 6 4 8 -5
11 -3 8 6 -3 8 -10 13 -16 12 -5 -1 -18 8 -28 20 l-19 22 23 -19 c37 -32 25
-3 -16 37 -39 38 -65 51 -41 19 13 -15 12 -16 -3 -3 -10 7 -15 17 -12 22 6 10
-61 55 -123 83 -41 18 -41 18 -48 88 -20 208 -107 381 -248 496 -89 71 -221
141 -380 201 -154 57 -227 91 -247 115 -20 25 -6 131 30 228 27 72 40 91 93
141 176 167 455 296 782 362 167 33 237 39 465 40 221 0 246 -2 424 -33 346
-60 490 -103 689 -203 82 -41 219 -129 202 -129 -6 0 -20 7 -32 15 -12 8 -30
12 -40 9 -13 -4 -15 -3 -5 4 11 7 0 18 -45 45 -227 136 -505 216 -953 273
-298 37 -652 0 -958 -102 -223 -73 -392 -168 -519 -288 -60 -57 -66 -68 -99
-161 -50 -149 -46 -193 24 -229 30 -15 345 -136 354 -136 4 0 14 20 23 44 11
27 43 69 90 116 41 41 72 77 70 80 -3 4 5 16 18 26 l22 19 -19 -22 c-11 -13
-15 -23 -9 -23 13 0 45 35 38 42 -3 3 3 11 12 19 16 13 17 12 4 -3 -8 -11 -9
-18 -3 -18 11 0 27 19 27 32 0 3 4 10 9 15 5 5 6 2 1 -6 -5 -9 -3 -12 6 -9 8
3 14 10 14 16 0 5 4 14 9 19 5 5 6 2 1 -6 -5 -9 -3 -12 6 -9 8 3 14 10 14 16
0 5 4 14 9 19 5 5 6 2 1 -6 -4 -7 -4 -12 1 -10 5 2 70 34 144 71 288 143 587
216 955 233 206 10 486 -20 780 -82 76 -16 83 -19 141 -77 57 -56 64 -68 93
-159 17 -53 31 -117 31 -142 0 -73 -22 -88 -270 -180 -307 -114 -454 -224
-545 -410 -86 -174 -104 -409 -46 -594 31 -99 88 -190 171 -272 123 -122 276
-200 495 -252 90 -21 94 -21 1803 -24 1212 -3 1725 0 1753 7 23 6 61 29 85 52
80 74 74 -74 74 1890 l0 1749 31 81 c40 103 118 189 189 209 61 17 163 15 231
-5 103 -29 156 -105 253 -356 124 -320 209 -426 397 -491 82 -28 242 -31 338
-5 35 9 64 16 66 14 1 -2 17 -37 35 -78 37 -83 60 -123 68 -115 7 6 42 -25 42
-38 0 -5 -9 1 -20 14 -10 13 -19 19 -20 13 0 -5 15 -24 33 -42 101 -98 264
-100 497 -6 73 30 95 45 162 111 43 43 78 82 78 87 0 5 -10 1 -23 -10 l-22
-19 19 23 c11 12 21 20 24 17 7 -6 32 15 32 27 0 5 -6 6 -12 2 -8 -4 -10 -3
-5 2 5 5 12 9 15 9 13 0 32 16 32 26 0 6 -6 7 -12 3 -8 -4 -10 -3 -5 2 5 5 14
9 20 9 5 0 12 6 15 14 3 9 0 11 -8 6 -9 -5 -11 -4 -6 4 4 6 11 9 16 6 10 -6
80 116 132 230 77 172 124 342 180 660 32 185 33 197 33 465 -1 239 -4 291
-23 400 -40 222 -89 392 -161 560 -48 112 -110 222 -121 215 -5 -3 -12 0 -16
6 -4 8 -3 9 4 5 17 -10 15 6 -4 32 -8 12 -19 20 -24 17 -5 -3 -12 0 -16 6 -5
8 -3 9 6 4 8 -5 11 -3 8 6 -3 8 -10 14 -16 14 -6 0 -17 7 -24 15 -11 12 -11
12 5 1 25 -19 21 2 -5 25 -14 12 -18 14 -13 4 4 -8 -4 -4 -18 9 -15 14 -27 27
-27 29 0 3 9 -3 20 -13 40 -36 19 2 -24 44 -34 34 -44 39 -39 23 3 -12 9 -20
13 -17 5 3 12 0 16 -6 4 -8 3 -9 -4 -5 -16 10 -15 2 9 -74 91 -289 137 -707
110 -1000 -13 -147 -63 -453 -96 -595 -59 -248 -172 -519 -290 -695 -123 -182
-260 -321 -365 -368 -83 -37 -182 -73 -187 -68 -2 2 29 16 69 31 146 56 188
82 288 184 216 221 366 503 461 869 43 168 97 497 111 680 23 310 -26 697
-129 1017 -15 44 -29 85 -33 90 -4 6 -24 50 -45 99 -102 240 -259 464 -411
590 -117 96 -359 177 -534 179 -151 1 -252 -37 -354 -132 -88 -83 -134 -164
-217 -387 -89 -241 -130 -304 -221 -345 -62 -27 -195 -32 -267 -11 -87 26
-172 143 -217 297 -16 56 -18 184 -24 1790 l-6 1730 -22 42 c-27 53 -56 80
-107 104 -38 18 -105 19 -1757 19 -1368 0 -1718 3 -1718 13 1 17 36 94 60 127
25 35 26 47 3 29 -15 -12 -15 -10 1 8 10 12 23 21 30 20 6 -1 10 4 8 11 -1 6
4 11 10 10 7 -2 12 2 11 8 -1 7 8 20 20 30 18 16 20 16 8 2 -7 -10 -9 -18 -3
-18 13 0 33 25 26 32 -6 6 49 48 63 48 4 0 -7 -10 -25 -21 -57 -37 -29 -30 50
12 42 22 146 66 230 98 175 66 241 98 233 111 -3 5 0 12 6 16 8 4 9 3 5 -4 -4
-7 -3 -12 2 -12 19 0 100 97 113 136 32 92 10 248 -58 410 -28 68 -46 93 -106
152 -87 85 -136 126 -143 120 -2 -3 19 -24 48 -46 29 -22 75 -65 103 -94 l50
-53 -60 56 c-33 31 -81 73 -107 94 -26 20 -45 41 -43 46 3 4 -3 13 -14 18 -13
8 -24 33 -36 83 -22 98 -88 270 -125 329 -62 96 -254 257 -420 353 -244 141
-490 220 -890 286 -296 49 -501 60 -733 39z"/>
</g>
</svg>
